<svg width="1200" height="720" viewBox="0 0 1200 720" fill="none" xmlns="http://www.w3.org/2000/svg">
  <rect width="1200" height="720" rx="36" fill="#08121C"/>
  <rect x="24" y="24" width="1152" height="672" rx="28" fill="url(#bg)"/>
  <circle cx="240" cy="150" r="126" fill="url(#glow1)"/>
  <circle cx="952" cy="534" r="176" fill="url(#glow2)"/>
  <text x="120" y="612" fill="#E8F7FF" font-family="Arial, sans-serif" font-size="62" font-weight="700">PETG</text>
  <text x="120" y="656" fill="#93B9C8" font-family="Arial, sans-serif" font-size="26">Tenaz, funcional y menos frágil que PLA</text>
  <ellipse cx="630" cy="430" rx="322" ry="72" fill="#08121C"/>
  <ellipse cx="630" cy="424" rx="280" ry="50" fill="#1E7DA2"/>
  <ellipse cx="630" cy="424" rx="208" ry="28" fill="#0D1722"/>
  <path d="M448 286C448 241.817 483.817 206 528 206H728C772.183 206 808 241.817 808 286V388C808 432.183 772.183 468 728 468H528C483.817 468 448 432.183 448 388V286Z" fill="#E2F7FF"/>
  <path d="M484 250C484 231.775 498.775 217 517 217H739C759.987 217 777 234.013 777 255V386C777 415.271 753.271 439 724 439H537C507.729 439 484 415.271 484 386V250Z" fill="#93D8F1"/>
  <path d="M544 174C544 151.909 561.909 134 584 134H680C702.091 134 720 151.909 720 174V246H544V174Z" fill="#10212E"/>
  <rect x="532" y="320" width="196" height="34" rx="17" fill="#4FC3E8"/>
  <rect x="510" y="372" width="240" height="22" rx="11" fill="#C6F1FF" fill-opacity="0.45"/>
  <defs>
    <linearGradient id="bg" x1="120" y1="54" x2="1088" y2="666" gradientUnits="userSpaceOnUse">
      <stop stop-color="#112433"/>
      <stop offset="1" stop-color="#0D1B28"/>
    </linearGradient>
    <radialGradient id="glow1" cx="0" cy="0" r="1" gradientUnits="userSpaceOnUse" gradientTransform="translate(240 150) rotate(90) scale(126)">
      <stop stop-color="#48D0F3"/>
      <stop offset="1" stop-color="#48D0F3" stop-opacity="0"/>
    </radialGradient>
    <radialGradient id="glow2" cx="0" cy="0" r="1" gradientUnits="userSpaceOnUse" gradientTransform="translate(952 534) rotate(90) scale(176)">
      <stop stop-color="#2AAE85"/>
      <stop offset="1" stop-color="#2AAE85" stop-opacity="0"/>
    </radialGradient>
  </defs>
</svg>
